<svg id="Слой_1" data-name="Слой 1" xmlns="http://www.w3.org/2000/svg" xmlns:xlink="http://www.w3.org/1999/xlink" viewBox="0 0 30.04 30"><defs><style>.cls-1{fill:url(#Безымянный_градиент_52);}.cls-2{clip-path:url(#clip-path);}.cls-3,.cls-4{stroke:#999;}.cls-3,.cls-4,.cls-5{stroke-miterlimit:10;}.cls-3{fill:url(#Безымянный_градиент_81);}.cls-4{fill:#333323;}.cls-5{fill:none;stroke:#d55853;stroke-width:2px;}.cls-6{fill:#d55853;}</style><radialGradient id="Безымянный_градиент_52" cx="-121.87" cy="-52.26" r="19.79" gradientUnits="userSpaceOnUse"><stop offset="0" stop-color="#516373"/><stop offset="1" stop-color="#404f5c"/></radialGradient><clipPath id="clip-path"><polygon id="_Обтравочный_контур_" data-name="&lt;Обтравочный контур&gt;" class="cls-1" points="-101.91 -59.73 -122.21 -59.73 -122.21 -71.88 -141.82 -52.26 -122.21 -32.64 -122.21 -43.71 -101.91 -43.71 -101.91 -59.73"/></clipPath><linearGradient id="Безымянный_градиент_81" x1="3.99" y1="-4.45" x2="3.99" y2="25" gradientUnits="userSpaceOnUse"><stop offset="0" stop-color="#fff"/><stop offset="0.09" stop-color="#f3f2f3"/><stop offset="0.28" stop-color="#dedede"/><stop offset="0.47" stop-color="#d2d1d2"/><stop offset="0.65" stop-color="#cecdce"/><stop offset="0.78" stop-color="#d1d0d1"/><stop offset="0.86" stop-color="#d9d9d9"/><stop offset="0.93" stop-color="#e8e8e8"/><stop offset="0.99" stop-color="#fdfdfd"/><stop offset="1" stop-color="#fff"/></linearGradient></defs><title>icon</title><polygon id="_Обтравочный_контур_2" data-name="&lt;Обтравочный контур&gt;" class="cls-1" points="-101.91 -59.73 -122.21 -59.73 -122.21 -71.88 -141.82 -52.26 -122.21 -32.64 -122.21 -43.71 -101.91 -43.71 -101.91 -59.73"/><g class="cls-2"><circle class="cls-3" cx="3.99" cy="10.15" r="14.82"/><circle class="cls-4" cx="-5.74" cy="-18.1" r="25"/></g><path class="cls-5" d="M29,15A14,14,0,0,1,1,15"/><polygon class="cls-6" points="19.1 14.19 15.76 14.19 15.76 10.9 16.91 5.06 15.76 5.06 14.13 5.06 12.97 5.06 14.13 10.9 14.13 14.19 10.9 14.19 5.06 13.03 5.06 14.19 5.06 15.81 5.06 16.97 10.9 15.81 14.13 15.81 14.13 19.1 12.97 24.94 14.13 24.94 15.76 24.94 16.91 24.94 15.76 19.1 15.76 15.81 19.1 15.81 24.94 16.97 24.94 15.81 24.94 14.19 24.94 13.03 19.1 14.19"/></svg>