<svg id="Слой_1" data-name="Слой 1" xmlns="http://www.w3.org/2000/svg" viewBox="0 0 30.04 30"><defs><style>.cls-1{fill:#000105;}</style></defs><title>icon</title><circle class="cls-1" cx="12.83" cy="9.98" r="2.33"/><circle class="cls-1" cx="12.83" cy="20.26" r="2.33"/><circle class="cls-1" cx="19.94" cy="15" r="2.33"/><path class="cls-1" d="M12.5,5.06c6.69,0,11.6,5.84,11.6,5.84l1.88,0V7L24.06,7l0,1.81c-.5,0-.87-.64-2.42-2.12C18.31,3.46,10.53-.69,6.15,4,.95,9.53,6,14.93,6,14.93s-5.09,5.4.1,10.94c4.39,4.68,12.17.52,15.54-2.7,1.56-1.48,1.92-2.12,2.42-2.12l0,1.81,1.92,0V19L24.1,19s-4.92,5.84-11.6,5.84C7.31,24.79,7,17.32,7,15.49V14.37C7,12.54,7.31,5.06,12.5,5.06Z"/></svg>